<?xml version="1.0" encoding="utf-8"?>
<!-- Generator: Adobe Illustrator 27.5.0, SVG Export Plug-In . SVG Version: 6.00 Build 0)  -->
<svg version="1.1" id="Layer_1" xmlns="http://www.w3.org/2000/svg" xmlns:xlink="http://www.w3.org/1999/xlink" x="0px" y="0px"
	 viewBox="0 0 5000 2916" style="enable-background:new 0 0 5000 2916;" xml:space="preserve">
<g>
	<rect x="0" y="0" style="fill-rule:evenodd;clip-rule:evenodd;fill:#FFFFFF;" width="5000" height="2916"/>
	<path style="fill:#FF6666;" d="M2919.457,1907.75c-4.344-1.948-8.698-3.912-13.049-5.868c-2.648-0.914-5.261-1.761-7.917-2.688
		C2905.49,1902.062,2912.53,1905.004,2919.457,1907.75 M4890.678,1755.738c1.625-1.462,3.242-2.919,4.842-4.363
		c-3.504,2.505-7.021,5.016-10.622,7.576C4886.819,1757.882,4888.778,1756.798,4890.678,1755.738z M2954.801,1921.466
		c-7.127-3.446-14.286-6.938-21.449-10.432c-5.813-1.956-11.642-3.94-17.48-5.938c6.93,3.136,13.872,6.296,20.728,9.325
		C2942.686,1916.798,2948.744,1919.133,2954.801,1921.466z M2972.227,1929.938c-2.361-1.123-4.761-2.308-7.148-3.474
		c-3.344-1.275-6.715-2.606-10.069-3.896C2960.784,1925.082,2966.476,1927.465,2972.227,1929.938z M4913.804,1737.095
		c1.441-1.657,2.892-3.317,4.313-4.953c-3.179,2.899-6.404,5.834-9.675,8.808C4910.225,1739.668,4912.05,1738.359,4913.804,1737.095
		z M4904.1,1748.227c2.371-2.708,4.658-5.34,6.975-8.002c-2.896,2.085-5.804,4.176-8.784,6.313
		c-2.592,2.348-5.242,4.739-7.896,7.131C4897.687,1751.83,4900.883,1750.03,4904.1,1748.227z M4934.313,1716.074l3.712-5.43
		c-2.792,3.213-5.625,6.48-8.504,9.8L4934.313,1716.074z M2986.832,1933.718c-8.705-4.474-17.476-9.04-26.251-13.614
		c-6.652-2.171-13.33-4.39-20.016-6.621c8.317,4.073,16.653,8.17,24.878,12.1C2972.579,1928.305,2979.74,1931.073,2986.832,1933.718
		z M3015.185,1948.237c-7.192-3.626-14.438-7.33-21.718-11.076c-5.919-2.199-11.803-4.333-17.753-6.582
		c7.54,3.574,14.94,6.95,22.437,10.461C3003.822,1943.431,3009.543,1945.897,3015.185,1948.237z M3037.386,1959.267
		c-3.617-1.798-7.232-3.598-10.834-5.382c-2.009-0.826-3.988-1.605-5.996-2.437
		C3026.167,1954.057,3031.83,1956.741,3037.386,1959.267z M4925.888,1728.384c2.05-2.991,4.079-5.953,6.079-8.883l-5.121,4.675
		l-2.691,2.456c-2.313,2.667-4.596,5.302-6.963,8.024L4925.888,1728.384z M4917.404,1740.735c2.325-3.374,4.642-6.742,6.9-10.04
		c-3.25,2.347-6.504,4.694-9.855,7.107c-2.604,2.989-5.212,5.989-7.883,9.04C4910.246,1744.776,4913.837,1742.748,4917.404,1740.735
		z M4952.239,1692.907c1.038-1.94,2.071-3.87,3.1-5.776c-2.383,3.439-4.8,6.947-7.25,10.514
		C4949.481,1696.05,4950.864,1694.47,4952.239,1692.907z M4945.102,1706.255c1.733-3.255,3.45-6.468,5.15-9.643
		c-2.242,2.56-4.508,5.164-6.809,7.802c-2,2.918-4.025,5.878-6.071,8.873C4939.984,1710.905,4942.56,1708.56,4945.102,1706.255z
		 M4937.926,1719.702l3.763-7.054l2.079-3.9c-2.863,2.606-5.775,5.258-8.734,7.956l-0.262,0.387
		c-2.163,3.156-4.388,6.415-6.604,9.653l0.883-0.639L4937.926,1719.702z M4930.701,1733.221c2.096-3.917,4.163-7.79,6.208-11.615
		l-7.304,5.271l-3.021,2.178c-2.396,3.494-4.833,7.044-7.292,10.616C4923.163,1737.485,4926.963,1735.334,4930.701,1733.221z
		 M3015.012,1944.025c-9.301-5.038-18.78-10.323-28.218-15.556c-6.936-2.197-13.872-4.39-20.839-6.647
		c9.325,4.863,18.668,9.757,27.883,14.459C3000.92,1938.906,3007.966,1941.464,3015.012,1944.025z M3047.295,1961.285
		c-8.859-4.723-17.659-9.367-26.568-14.156c-6.729-2.431-13.49-4.912-20.259-7.409c8.888,4.52,17.67,8.888,26.478,13.297
		C3033.757,1955.816,3040.53,1958.553,3047.295,1961.285z M3074.705,1975.894c-6.367-3.342-12.842-6.827-19.293-10.282
		c-5.675-2.274-11.403-4.629-17.105-6.952c6.929,3.461,13.884,6.945,20.753,10.312
		C3064.3,1971.315,3069.492,1973.59,3074.705,1975.894z M3094.378,1986.096c-2.138-1.109-4.244-2.178-6.375-3.279
		c-2.615-1.145-5.263-2.333-7.882-3.49C3084.922,1981.653,3089.603,1983.809,3094.378,1986.096z M4967.678,1667.874
		c0.841-2.018,1.679-4.022,2.513-6.001c-1.992,3.584-4,7.245-6.038,10.978C4965.336,1671.171,4966.511,1669.514,4967.678,1667.874z
		 M4961.773,1682.109c1.429-3.465,2.842-6.885,4.242-10.253c-1.929,2.733-3.884,5.517-5.859,8.346
		c-1.7,3.142-3.421,6.328-5.154,9.559C4957.29,1687.164,4959.544,1684.614,4961.773,1682.109z M4955.86,1696.522
		c1.625-3.969,3.229-7.886,4.817-11.746c-2.513,2.831-5.067,5.727-7.659,8.677c-1.917,3.584-3.863,7.22-5.833,10.906
		C4950.126,1701.693,4953.019,1699.082,4955.86,1696.522z M4949.918,1711.07l1.021-2.5l4.096-10.021
		c-3.008,2.708-6.067,5.474-9.18,8.3l-3.329,6.248l-2.85,5.343C4943.155,1715.934,4946.572,1713.473,4949.918,1711.07z
		 M4943.935,1725.718c1.792-4.383,3.563-8.716,5.309-12.995c-3.458,2.488-6.988,5.026-10.583,7.62
		c-2.109,3.952-4.246,7.954-6.417,12l8.438-4.779L4943.935,1725.718z M3044.409,1954.642c-10.338-5.883-20.711-11.814-31.16-17.839
		c-7.225-2.221-14.511-4.549-21.776-6.839c9.919,5.481,19.878,11.02,29.641,16.291
		C3028.884,1949.059,3036.69,1951.923,3044.409,1954.642z M3078.211,1973.701c-9.759-5.462-19.524-10.935-29.383-16.53
		c-7.196-2.523-14.416-5.089-21.651-7.686c9.577,5.137,19.111,10.213,28.622,15.255
		C3063.275,1967.739,3070.79,1970.79,3078.211,1973.701z M3110.344,1991.57c-8.663-4.765-17.426-9.665-26.191-14.563
		c-6.736-2.628-13.461-5.244-20.24-7.944c8.205,4.355,16.378,8.672,24.48,12.885
		C3095.706,1985.145,3103.094,1988.455,3110.344,1991.57z M3140.741,2008.094c-7.615-4.118-15.14-8.118-22.801-12.3
		c-5.04-2.151-10.028-4.223-15.094-6.413c6.119,3.151,12.27,6.34,18.357,9.443
		C3127.686,2001.873,3134.307,2005.116,3140.741,2008.094z M3157.842,2017.316c-1.575-0.844-3.163-1.708-4.744-2.558
		c-1.596-0.733-3.152-1.411-4.754-2.146C3151.535,2014.211,3154.665,2015.732,3157.842,2017.316z M4980.749,1641.34
		c0.667-2.067,1.329-4.11,1.992-6.135c-1.633,3.651-3.275,7.397-4.929,11.223C4978.795,1644.71,4979.774,1643.014,4980.749,1641.34z
		 M4976.02,1656.287c1.133-3.632,2.263-7.208,3.384-10.729c-1.642,2.848-3.296,5.756-4.967,8.721
		c-1.413,3.312-2.837,6.686-4.275,10.108C4972.136,1661.63,4974.09,1658.927,4976.02,1656.287z M4971.311,1671.498
		c1.288-4.196,2.567-8.327,3.83-12.392c-2.184,3.005-4.392,6.086-6.634,9.237c-1.592,3.811-3.2,7.69-4.825,11.627
		C4966.265,1677.079,4968.807,1674.255,4971.311,1671.498z M4966.611,1686.922c1.358-4.496,2.708-8.927,4.046-13.29
		c-2.646,2.92-5.333,5.919-8.067,8.993c-1.684,4.082-3.388,8.234-5.108,12.44
		C4960.582,1692.285,4963.623,1689.567,4966.611,1686.922z M4961.89,1702.516c1.413-4.68,2.813-9.299,4.192-13.856
		c-3.083,2.737-6.225,5.549-9.425,8.428c-1.592,3.894-3.205,7.843-4.838,11.838l-0.45,1.106
		C4954.948,1707.464,4958.456,1704.955,4961.89,1702.516z M4957.131,1718.243c1.417-4.68,2.817-9.314,4.2-13.883l0.108-0.36
		c-3.504,2.497-7.084,5.057-10.747,7.683c-1.783,4.37-3.592,8.799-5.425,13.281
		C4949.314,1722.666,4953.264,1720.427,4957.131,1718.243z M3071.877,1964.097c-10.875-6.447-21.82-12.98-32.814-19.584
		c-7.273-2.163-14.524-4.288-21.834-6.521c10.707,6.178,21.366,12.285,31.941,18.289
		C3056.774,1958.948,3064.321,1961.513,3071.877,1964.097z M3106.79,1984.682c-10.171-5.929-20.491-12.05-30.802-18.163
		c-7.448-2.538-14.909-5.094-22.401-7.709c10.377,5.871,20.624,11.562,30.91,17.307
		C3091.964,1979.03,3099.375,1981.849,3106.79,1984.682z M3141.185,2004.518c-9.802-5.626-19.536-11.168-29.428-16.905
		c-7.08-2.693-14.19-5.425-21.32-8.191c9.309,5.205,18.643,10.441,27.816,15.468
		C3125.947,1998.171,3133.553,2001.324,3141.185,2004.518z M3172.859,2022.638c-8.255-4.664-16.615-9.472-24.978-14.278
		c-6.984-2.903-13.994-5.846-21.028-8.825c8.865,4.801,17.688,9.553,26.508,14.292
		C3159.911,2016.832,3166.357,2019.695,3172.859,2022.638z M3204.321,2040.206c-7.196-4-14.43-8.048-21.659-12.094
		c-5.759-2.585-11.536-5.194-17.332-7.828c7.15,3.825,14.23,7.564,21.305,11.296
		C3192.537,2034.464,3198.457,2037.377,3204.321,2040.206z M3220.82,2049.423c-1.238-0.682-2.5-1.398-3.75-2.093
		c-0.992-0.479-1.975-0.938-2.971-1.413C3216.334,2047.073,3218.595,2048.274,3220.82,2049.423z M4991.658,1613.71
		c0.509-2.091,1.017-4.155,1.525-6.202c-1.321,3.675-2.646,7.446-3.975,11.314
		C4990.029,1617.093,4990.841,1615.392,4991.658,1613.71z M4988.003,1629.17c0.867-3.758,1.729-7.455,2.596-11.082
		c-1.379,2.909-2.767,5.892-4.163,8.939c-1.15,3.445-2.305,6.952-3.467,10.528
		C4984.662,1634.693,4986.341,1631.895,4988.003,1629.17z M4984.424,1644.991c0.967-4.372,1.938-8.67,2.904-12.89
		c-1.879,3.117-3.779,6.315-5.696,9.607c-1.283,3.993-2.571,8.06-3.875,12.203
		C4980.012,1650.852,4982.229,1647.878,4984.424,1644.991z M4980.882,1661.119c1.021-4.711,2.038-9.345,3.046-13.905
		c-2.313,3.071-4.667,6.241-7.046,9.498c-1.346,4.305-2.7,8.685-4.067,13.138
		C4975.549,1666.852,4978.241,1663.938,4980.882,1661.119z M4977.37,1677.492c1.05-4.929,2.092-9.788,3.125-14.57
		c-2.729,2.926-5.508,5.943-8.329,9.052c-1.388,4.508-2.78,9.092-4.196,13.745
		C4971.165,1682.893,4974.303,1680.149,4977.37,1677.492z M4973.849,1694.07c1.079-5.079,2.138-10.096,3.192-15.034
		c-3.133,2.717-6.33,5.524-9.596,8.416c-1.413,4.653-2.842,9.377-4.292,14.163
		C4966.803,1699.024,4970.365,1696.507,4973.849,1694.07z M4970.303,1710.818l2.279-10.761l0.979-4.624
		c-3.533,2.476-7.15,5.033-10.854,7.667l-0.467,1.538c-1.288,4.257-2.592,8.572-3.909,12.927
		C4962.423,1715.249,4966.415,1713.001,4970.303,1710.818z M3099.583,1973.546c-11.419-7.015-22.886-14.091-34.449-21.292
		c-7.448-2.144-14.98-4.445-22.468-6.662c11.292,6.766,22.497,13.419,33.677,20.044
		C3084.088,1968.271,3091.887,1970.994,3099.583,1973.546z M3136.295,1995.908c-11.065-6.706-22.128-13.406-33.316-20.264
		c-7.475-2.468-15.009-5.038-22.53-7.589c10.596,6.28,21.224,12.598,31.66,18.67
		C3120.173,1989.791,3128.293,1992.939,3136.295,1995.908z M3171.734,2017.273c-10.311-6.149-20.782-12.493-31.245-18.831
		c-7.64-2.824-15.338-5.73-23.041-8.643c10.315,5.967,20.543,11.821,30.766,17.669
		C3156.044,2010.723,3163.969,2014.112,3171.734,2017.273z M3207.03,2038.072c-9.948-5.837-19.913-11.695-29.951-17.648
		c-7.348-2.979-14.765-6.052-22.176-9.113c9.413,5.37,18.757,10.659,28.062,15.891
		C3190.958,2030.791,3199.109,2034.587,3207.03,2038.072z M3239.135,2056.78c-8.498-4.915-17.009-9.845-25.593-14.87
		c-6.88-3.011-13.855-6.154-20.789-9.239c8.223,4.612,16.465,9.249,24.593,13.737
		C3224.633,2049.895,3231.914,2053.377,3239.135,2056.78z M3268.585,2073.689c-6.219-3.543-12.507-7.173-18.776-10.783
		c-6.015-2.81-12.163-5.801-18.226-8.673c6.988,3.813,13.919,7.554,20.874,11.322
		C3257.847,2068.285,3263.229,2071.008,3268.585,2073.689z M3286.994,2084.141c-0.689-0.392-1.365-0.76-2.056-1.149
		c-1.033-0.513-2.1-1.07-3.136-1.583C3283.55,2082.343,3285.248,2083.213,3286.994,2084.141z M4997.921,1601.201
		c0.633-3.849,1.267-7.622,1.908-11.325c-1.167,2.936-2.329,5.953-3.492,9.051c-0.913,3.518-1.821,7.115-2.725,10.785
		C4995.054,1606.791,4996.487,1603.953,4997.921,1601.201z M4995.366,1617.439c0.688-4.501,1.375-8.922,2.075-13.249
		c-1.621,3.165-3.246,6.442-4.883,9.817c-0.996,4.116-1.996,8.325-2.992,12.615
		C4991.516,1623.46,4993.45,1620.396,4995.366,1617.439z M4992.908,1634.078c0.704-4.874,1.404-9.663,2.117-14.357
		c-2.025,3.148-4.067,6.42-6.129,9.8c-1.034,4.467-2.063,9.024-3.101,13.667C4988.199,1640.042,4990.57,1637.003,4992.908,1634.078z
		 M4990.516,1651.044c0.712-5.123,1.417-10.164,2.129-15.115c-2.409,3.037-4.858,6.195-7.342,9.465
		c-1.042,4.709-2.096,9.502-3.154,14.378C4984.995,1656.754,4987.778,1653.841,4990.516,1651.044z M4988.162,1668.3
		c0.712-5.305,1.429-10.532,2.137-15.673c-2.792,2.867-5.642,5.848-8.538,8.943c-1.059,4.884-2.125,9.851-3.2,14.892
		C4981.833,1673.638,4985.033,1670.915,4988.162,1668.3z M4985.816,1685.787c0.725-5.437,1.442-10.802,2.154-16.092
		c-3.171,2.662-6.417,5.43-9.734,8.305c-1.075,5.016-2.15,10.11-3.25,15.271C4978.69,1690.685,4982.303,1688.188,4985.816,1685.787z
		 M4983.462,1703.481l1.037-7.801l1.146-8.627c-3.55,2.432-7.2,4.961-10.942,7.579l-1.192,5.624l-2.104,9.941
		C4975.544,1707.878,4979.557,1705.64,4983.462,1703.481z M3126.063,1982.09c-11.763-7.46-23.678-15.112-35.612-22.788
		c-7.35-2.047-14.663-4.022-22.053-6.139c11.726,7.298,23.368,14.495,34.931,21.593
		C3110.952,1977.271,3118.492,1979.657,3126.063,1982.09z M3163.853,2005.878c-11.426-7.143-22.941-14.398-34.523-21.73
		c-7.523-2.411-15.032-4.804-22.607-7.294c11.465,7.016,22.78,13.841,34.116,20.697
		C3148.558,2000.399,3156.192,2003.117,3163.853,2005.878z M3200.896,2028.847c-11.04-6.806-22.08-13.616-33.25-20.583
		c-7.521-2.698-15.041-5.396-22.614-8.182c10.853,6.558,21.674,13.076,32.381,19.443
		C3185.3,2022.723,3193.073,2025.75,3200.896,2028.847z M3236.535,2050.72c-10.223-6.209-20.586-12.596-30.951-18.986
		c-7.59-2.993-15.178-5.975-22.833-9.06c10.417,6.181,20.791,12.295,31.089,18.323
		C3221.479,2044.337,3228.964,2047.473,3236.535,2050.72z M3272.035,2072.089c-9.782-5.851-19.626-11.781-29.51-17.761
		c-7.396-3.16-14.759-6.274-22.22-9.522c10.021,5.839,19.903,11.496,29.823,17.205
		C3257.491,2065.449,3264.735,2068.736,3272.035,2072.089z M3305.449,2091.918c-8.729-5.145-17.438-10.265-26.253-15.519
		c-6.502-2.969-12.932-5.844-19.484-8.886c8.588,4.932,17.153,9.839,25.633,14.628
		C3292.122,2085.5,3298.728,2088.634,3305.449,2091.918z M3335.37,2109.5c-6.471-3.763-13.047-7.656-19.603-11.521
		c-5.344-2.589-10.678-5.167-16.057-7.803c6.55,3.663,13.13,7.368,19.643,10.983
		C3324.694,2103.942,3330.063,2106.764,3335.37,2109.5z M3352.57,2119.407c-0.531-0.305-1.054-0.603-1.583-0.907l-1.35-0.687
		C3350.618,2118.35,3351.591,2118.873,3352.57,2119.407z M4997.813,1677.739c0.371-5.754,0.746-11.433,1.117-17.028
		c-3.208,2.563-6.5,5.259-9.875,8.08c-0.725,5.348-1.45,10.778-2.188,16.28C4990.625,1682.513,4994.275,1680.067,4997.813,1677.739z
		 M4996.612,1696.28l0.329-5.041l0.796-12.313c-3.571,2.353-7.25,4.823-11.034,7.41l-1.263,9.464l-0.946,7.108
		C4988.67,1700.599,4992.712,1698.387,4996.612,1696.28z M3153.173,1990.807c-12.344-8.053-24.733-16.165-37.223-24.406
		c-7.427-1.994-14.957-4.172-22.424-6.241c12.117,7.78,24.207,15.526,36.166,23.102
		C3137.512,1985.766,3145.408,1988.392,3153.173,1990.807z M3191.956,2015.997c-11.869-7.641-23.899-15.479-35.941-23.337
		c-7.636-2.369-15.367-4.891-23.057-7.342c11.744,7.436,23.459,14.831,35.041,22.059
		C3175.978,2010.244,3184.045,2013.231,3191.956,2015.997z M3230.287,2040.498c-11.573-7.344-23.237-14.809-34.966-22.35
		c-7.788-2.712-15.682-5.577-23.532-8.385c11.469,7.144,22.797,14.104,34.137,21.077
		C3214.03,2034.038,3222.258,2037.411,3230.287,2040.498z M3267.745,2064.095c-11.157-6.989-22.318-13.982-33.612-21.135
		c-7.775-2.984-15.68-6.153-23.524-9.229c10.809,6.64,21.572,13.232,32.233,19.695
		C3251.13,2056.963,3259.541,2060.668,3267.745,2064.095z M3303.876,2086.611c-10.284-6.35-20.695-12.854-31.126-19.385
		c-7.884-3.276-15.959-6.819-23.922-10.2c10.276,6.219,20.545,12.426,30.685,18.473
		C3287.644,2079.214,3295.83,2083.006,3303.876,2086.611z M3339.643,2108.523c-9.65-5.871-19.388-11.85-29.151-17.859
		c-7.821-3.486-15.843-7.23-23.743-10.821c9.878,5.863,19.609,11.535,29.389,17.272
		C3323.969,2100.913,3331.89,2104.826,3339.643,2108.523z M3373.107,2128.71c-8.75-5.249-17.455-10.439-26.289-15.792
		c-6.759-3.204-13.565-6.468-20.385-9.752c8.363,4.893,16.663,9.706,24.933,14.476
		C3358.627,2121.349,3365.911,2125.087,3373.107,2128.71z M3401.537,2145.73c-5.679-3.361-11.463-6.85-17.222-10.308
		c-5.463-2.73-11.042-5.6-16.547-8.38c6.45,3.702,12.942,7.456,19.322,11.071C3391.954,2140.712,3396.704,2143.17,3401.537,2145.73z
		 M3419.697,2156.37l-0.196-0.114l-0.175-0.09L3419.697,2156.37z M3178.935,1998.563c-12.73-8.526-25.466-17.053-38.371-25.786
		c-7.269-1.885-14.48-3.666-21.789-5.624c12.624,8.322,25.122,16.487,37.587,24.615
		C3163.94,1994.115,3171.409,1996.298,3178.935,1998.563z M3218.885,2025.132c-12.355-8.174-24.749-16.395-37.26-24.765
		c-7.469-2.24-14.903-4.423-22.418-6.747c12.221,7.964,24.406,15.882,36.456,23.635
		C3203.463,2019.971,3211.145,2022.509,3218.885,2025.132z M3257.859,2050.8c-11.83-7.724-23.824-15.649-35.831-23.591
		c-7.659-2.587-15.284-5.125-23.003-7.802c11.88,7.635,23.722,15.226,35.435,22.65
		C3242.332,2045.075,3250.055,2047.879,3257.859,2050.8z M3296.422,2075.771c-11.549-7.439-23.145-14.94-34.841-22.56
		c-7.753-2.89-15.457-5.711-23.281-8.695c11.688,7.393,23.209,14.582,34.75,21.798
		C3280.929,2069.587,3288.617,2072.598,3296.422,2075.771z M3334.38,2100.037c-11.188-7.112-22.38-14.232-33.708-21.513
		c-7.656-3.102-15.23-6.091-22.955-9.29c11.1,6.93,22.134,13.778,33.083,20.525C3318.746,2093.3,3326.511,2096.598,3334.38,2100.037
		z M3370.944,2123.164c-10.359-6.493-20.849-13.145-31.356-19.824c-7.632-3.317-15.218-6.567-22.92-9.984
		c10.207,6.285,20.422,12.576,30.485,18.682C3355.144,2115.824,3363.035,2119.482,3370.944,2123.164z M3406.604,2145.334
		c-9.584-5.925-19.242-11.938-28.926-17.987c-7.613-3.524-15.28-7.115-22.964-10.738c10.042,6.059,19.984,11.991,29.931,17.926
		C3392.037,2138.229,3399.283,2141.733,3406.604,2145.334z M3441.194,2166.529c-8.851-5.389-17.643-10.722-26.576-16.216
		c-6.725-3.286-13.455-6.582-20.239-9.945c8.559,5.086,17.018,10.054,25.476,15.024
		C3426.989,2159.129,3434.131,2162.878,3441.194,2166.529z M3469.428,2183.703c-5.771-3.473-11.646-7.073-17.497-10.64
		c-4.905-2.519-9.73-4.934-14.667-7.492c5.409,3.165,10.859,6.385,16.205,9.476
		C3458.823,2177.972,3464.115,2180.823,3469.428,2183.703z M3204.996,2006.408c-13.003-8.91-26.147-17.992-39.36-27.159
		c-7.407-1.851-14.895-3.845-22.343-5.766c13,8.798,25.853,17.415,38.675,25.991
		C3189.637,2001.776,3197.381,2004.194,3204.996,2006.408z M3246.151,2034.381c-12.83-8.687-25.626-17.335-38.627-26.229
		c-7.563-2.192-15.255-4.593-22.868-6.869c12.672,8.469,25.206,16.764,37.712,25.033
		C3230.283,2028.988,3238.3,2031.806,3246.151,2034.381z M3286.357,2061.445c-12.378-8.283-24.824-16.648-37.368-25.135
		c-7.755-2.538-15.659-5.289-23.476-7.92c12.205,8.063,24.372,16.077,36.4,23.925
		C3270.054,2055.347,3278.292,2058.52,3286.357,2061.445z M3325.496,2087.536c-11.778-7.782-23.747-15.797-35.708-23.802
		c-7.965-2.879-16.12-6.028-24.155-9.011c11.857,7.724,23.647,15.366,35.341,22.892
		C3309.149,2080.925,3317.402,2084.339,3325.496,2087.536z M3364.902,2113.333c-11.709-7.634-23.433-15.288-35.285-23.097
		c-8.04-3.165-16.276-6.6-24.399-9.874c11.663,7.485,23.166,14.769,34.681,22.077
		C3348.224,2106.059,3356.664,2109.834,3364.902,2113.333z M3402.563,2137.724c-11.059-7.125-22.151-14.278-33.356-21.573
		c-7.963-3.369-16.067-6.928-24.109-10.408c11.055,7.001,22.034,13.919,32.931,20.733
		C3386.253,2130.285,3394.429,2134.028,3402.563,2137.724z M3439.427,2161.348c-10.409-6.611-20.968-13.404-31.535-20.206
		c-7.7-3.479-15.363-6.906-23.143-10.487c10.113,6.318,20.23,12.639,30.206,18.782
		C3423.134,2153.441,3431.335,2157.462,3439.427,2161.348z M3475.508,2184.058c-9.755-6.11-19.568-12.29-29.422-18.519
		c-7.513-3.591-15.038-7.192-22.626-10.88c9.659,5.917,19.23,11.718,28.797,17.522
		C3460.032,2176.172,3467.816,2180.17,3475.508,2184.058z M3509.309,2205.071c-8.354-5.165-16.667-10.277-25.105-15.539
		c-7.005-3.515-14.167-7.232-21.239-10.836c8.963,5.408,17.809,10.684,26.672,15.97
		C3496.259,2198.209,3502.755,2201.6,3509.309,2205.071z M3538.473,2223.04c-5.78-3.526-11.655-7.17-17.505-10.788
		c-5.079-2.664-10.146-5.323-15.263-8.034c5.354,3.189,10.746,6.425,16.034,9.531
		C3527.335,2216.874,3532.915,2219.969,3538.473,2223.04z M3230.26,2013.51c-13.297-9.307-26.76-18.812-40.262-28.365
		c-7.246-1.745-14.442-3.405-21.726-5.215c13.288,9.217,26.526,18.374,39.596,27.325
		C3215.393,2009.435,3222.785,2011.412,3230.26,2013.51z M3272.129,2042.623c-13.073-9.04-26.222-18.183-39.487-27.456
		c-7.446-2.085-14.834-4.073-22.337-6.239c13.134,8.981,26.064,17.714,39.023,26.481
		C3256.995,2037.917,3264.52,2040.208,3272.129,2042.623z M3313.371,2070.969c-12.803-8.758-25.62-17.537-38.596-26.502
		c-7.563-2.395-15.059-4.694-22.678-7.178c12.769,8.634,25.418,17.121,38.016,25.542
		C3297.951,2065.663,3305.605,2068.238,3313.371,2070.969z M3353.768,2098.469c-12.353-8.353-24.833-16.854-37.364-25.423
		c-7.702-2.7-15.315-5.28-23.091-8.077c12.28,8.206,24.537,16.387,36.629,24.368
		C3337.968,2092.496,3345.818,2095.417,3353.768,2098.469z M3393.537,2125.22c-11.98-8-24.105-16.177-36.26-24.392
		c-7.798-2.982-15.463-5.789-23.339-8.874c11.944,7.865,23.793,15.623,35.581,23.296
		C3377.599,2118.672,3385.541,2121.907,3393.537,2125.22z M3433.11,2151.432c-11.822-7.797-23.605-15.551-35.581-23.526
		c-7.879-3.252-15.747-6.483-23.714-9.841c11.576,7.521,23.001,14.863,34.427,22.205
		C3416.559,2144.027,3424.885,2147.793,3433.11,2151.432z M3471.245,2176.427c-11.021-7.178-22.114-14.437-33.289-21.796
		c-8.05-3.543-16.255-7.283-24.397-10.942c11.03,7.078,22.01,14.096,32.881,20.982
		C3454.748,2168.639,3463.032,2172.576,3471.245,2176.427z M3507.88,2200.184c-10.134-6.512-20.438-13.227-30.727-19.93
		c-7.946-3.705-16.034-7.582-24.072-11.403c10.542,6.667,21.068,13.319,31.46,19.804
		C3492.409,2192.608,3500.101,2196.342,3507.88,2200.184z M3544.932,2223.766c-9.926-6.289-19.864-12.6-29.885-19.008
		c-7.492-3.678-14.976-7.352-22.547-11.131c9.68,6.01,19.239,11.874,28.826,17.768
		C3529.206,2215.534,3537.14,2219.737,3544.932,2223.766z M3578.392,2244.84c-8.367-5.234-16.739-10.473-25.201-15.821
		c-6.725-3.458-13.459-6.926-20.247-10.463c8.713,5.334,17.322,10.541,25.93,15.754
		C3565.446,2237.897,3571.887,2241.327,3578.392,2244.84z M3608.289,2263.463c-5.754-3.555-11.596-7.215-17.409-10.845
		c-5.138-2.75-10.321-5.561-15.497-8.358c5.317,3.208,10.671,6.468,15.926,9.6
		C3596.985,2257.082,3602.656,2260.296,3608.289,2263.463z M3255.776,2020.636c-13.703-9.776-27.537-19.704-41.423-29.698
		c-7.269-1.682-14.599-3.461-21.911-5.215c13.599,9.617,27.149,19.178,40.55,28.549
		C3240.586,2016.397,3248.234,2018.597,3255.776,2020.636z M3298.418,2050.943c-13.303-9.387-26.824-19.03-40.344-28.673
		c-7.509-2.026-15.136-4.23-22.699-6.34c13.34,9.329,26.597,18.553,39.741,27.639
		C3282.884,2046.028,3290.717,2048.581,3298.418,2050.943z M3340.62,2080.501c-13.159-9.181-26.305-18.35-39.646-27.746
		c-7.665-2.348-15.48-4.908-23.214-7.344c13.109,9.05,26.043,17.897,38.973,26.734
		C3324.702,2074.938,3332.728,2077.815,3340.62,2080.501z M3381.949,2109.187c-12.726-8.784-25.531-17.661-38.437-26.66
		c-7.836-2.659-15.836-5.544-23.745-8.307c12.692,8.672,25.308,17.249,37.819,25.701
		C3365.723,2103.032,3373.894,2106.188,3381.949,2109.187z M3422.747,2137.241c-12.363-8.435-24.922-17.098-37.481-25.769
		c-7.984-2.961-16.109-6.119-24.172-9.192c12.313,8.319,24.635,16.64,36.76,24.731
		C3406.163,2130.437,3414.526,2133.936,3422.747,2137.241z M3462.611,2164.252c-12.009-8.097-24.084-16.276-36.26-24.567
		c-8.063-3.233-16.226-6.589-24.38-9.938c12.217,8.13,24.285,16.077,36.344,24.019
		C3446.498,2157.367,3454.519,2160.768,3462.611,2164.252z M3502.021,2190.641c-11.709-7.795-23.43-15.614-35.293-23.599
		c-7.913-3.392-15.747-6.686-23.747-10.192c11.601,7.625,23.089,15.109,34.539,22.548
		C3485.762,2183.243,3493.867,2186.914,3502.021,2190.641z M3540.503,2216.149c-11.101-7.303-22.334-14.759-33.606-22.26
		c-7.875-3.582-15.68-7.073-23.643-10.768c10.78,6.998,21.539,13.979,32.156,20.783
		C3523.81,2208.032,3532.202,2212.146,3540.503,2216.149z M3577.8,2240.535c-10.409-6.759-20.943-13.665-31.497-20.593
		c-7.842-3.763-15.692-7.54-23.622-11.414c10.338,6.606,20.647,13.176,30.856,19.627
		C3561.67,2232.337,3569.762,2236.473,3577.8,2240.535z M3614.356,2264.076c-9.771-6.263-19.48-12.448-29.355-18.834
		c-7.667-3.86-15.472-7.885-23.222-11.848c9.925,6.244,19.68,12.286,29.493,18.396
		C3599.01,2255.936,3606.706,2260.037,3614.356,2264.076z M3647.97,2285.516c-8.217-5.201-16.501-10.476-24.826-15.807
		c-6.505-3.412-12.913-6.706-19.48-10.198c8.267,5.128,16.459,10.161,24.626,15.171
		C3634.907,2278.361,3641.416,2281.91,3647.97,2285.516z M3678.601,2304.771c-5.746-3.594-11.567-7.269-17.355-10.912
		c-5.104-2.782-10.28-5.657-15.422-8.486c5.363,3.272,10.767,6.597,16.072,9.798
		C3667.48,2298.389,3673.063,2301.605,3678.601,2304.771z M3280.565,2027.144c-13.992-10.149-28.105-20.445-42.277-30.812
		c-7.173-1.595-14.338-3.164-21.555-4.83c13.976,10.054,27.891,20.036,41.689,29.876
		C3265.856,2023.381,3273.183,2025.219,3280.565,2027.144z M3323.998,2058.56c-13.628-9.788-27.48-19.843-41.321-29.885
		c-7.329-1.905-14.578-3.683-21.957-5.667c13.605,9.701,27.218,19.419,40.602,28.852
		C3308.948,2054.19,3316.435,2056.32,3323.998,2058.56z M3366.965,2089.256c-13.43-9.548-26.966-19.22-40.596-29.002
		c-7.502-2.214-14.907-4.285-22.472-6.591c13.428,9.459,26.705,18.734,39.95,27.969
		C3351.625,2084.271,3359.264,2086.718,3366.965,2089.256z M3409.342,2119.207c-13.184-9.272-26.41-18.602-39.781-28.097
		c-7.621-2.505-15.13-4.854-22.822-7.453c13.051,9.092,25.976,18.04,38.844,26.914
		C3393.562,2113.532,3401.446,2116.356,3409.342,2119.207z M3450.927,2148.339c-12.771-8.886-25.693-17.953-38.656-27.073
		c-7.792-2.8-15.505-5.505-23.372-8.411c12.667,8.733,25.301,17.433,37.773,25.934
		C3434.818,2142.053,3442.869,2145.191,3450.927,2148.339z M3492.167,2176.916c-12.484-8.589-25.147-17.392-37.831-26.212
		c-7.98-3.107-15.992-6.253-24.06-9.474c12.346,8.407,24.635,16.748,36.802,24.942
		C3475.445,2169.762,3483.896,2173.45,3492.167,2176.916z M3532.581,2204.516c-12.23-8.314-24.43-16.602-36.823-25.112
		c-8.117-3.386-16.355-6.936-24.568-10.445c12.134,8.155,24.093,16.107,36.06,24.066
		C3515.71,2196.875,3524.227,2200.797,3532.581,2204.516z M3571.896,2231.106c-11.634-7.816-23.347-15.731-35.147-23.747
		c-8.138-3.61-16.388-7.359-24.626-11.09c11.592,7.7,23.109,15.313,34.535,22.812
		C3555.103,2223.137,3563.545,2227.178,3571.896,2231.106z M3609.86,2256.541c-10.767-7.149-21.735-14.534-32.681-21.893
		c-8.155-3.82-16.476-7.835-24.735-11.78c11.026,7.238,22.072,14.5,32.918,21.525
		C3593.609,2248.543,3601.714,2252.514,3609.86,2256.541z M3648.391,2281.901c-10.713-7.021-21.468-14.096-32.302-21.259
		c-7.78-3.825-15.509-7.596-23.38-11.533c10.325,6.655,20.588,13.237,30.802,19.761
		C3631.82,2273.232,3640.183,2277.66,3648.391,2281.901z M3684.372,2305.327c-9.601-6.212-19.201-12.429-28.922-18.778
		c-7.655-3.932-15.434-8.019-23.18-12.058c9.888,6.289,19.638,12.418,29.397,18.565
		C3669.292,2297.216,3676.83,2301.269,3684.372,2305.327z M3717.72,2326.854c-7.929-5.073-16.013-10.316-24.076-15.536
		c-6.542-3.498-13.017-6.921-19.626-10.497c8.13,5.106,16.23,10.173,24.251,15.146
		C3704.807,2319.662,3711.244,2323.234,3717.72,2326.854z M3749.171,2346.769c-5.784-3.649-11.609-7.354-17.405-11.02
		c-4.946-2.745-9.98-5.587-14.972-8.378c5.525,3.4,11.101,6.858,16.58,10.207
		C3738.658,2340.664,3743.934,2343.734,3749.171,2346.769z M3305.316,2033.517c-14.334-10.569-28.735-21.212-43.26-32.012
		c-7.152-1.522-14.334-3.095-21.53-4.688c14.251,10.425,28.427,20.755,42.496,30.957
		C3290.465,2029.706,3297.928,2031.666,3305.316,2033.517z M3349.645,2066.081c-13.969-10.205-28.099-20.597-42.271-31.046
		c-7.369-1.84-14.822-3.809-22.241-5.726c13.93,10.101,27.854,20.193,41.575,30.047
		C3334.365,2061.614,3342.051,2063.916,3349.645,2066.081z M3393.27,2097.825c-13.646-9.871-27.472-19.949-41.331-30.074
		c-7.561-2.149-15.238-4.462-22.862-6.703c13.697,9.829,27.324,19.574,40.812,29.159
		C3377.703,2092.772,3385.532,2095.361,3393.27,2097.825z M3436.397,2128.826c-13.48-9.653-26.951-19.303-40.623-29.179
		c-7.7-2.444-15.518-5.043-23.293-7.586c13.484,9.57,26.806,18.95,40.098,28.297
		C3420.551,2123.226,3428.51,2126.067,3436.397,2128.826z M3479.033,2159.214c-13.176-9.341-26.451-18.799-39.823-28.37
		c-7.846-2.733-15.78-5.586-23.705-8.427c13.142,9.237,26.218,18.394,39.168,27.395
		C3462.824,2152.986,3470.97,2156.158,3479.033,2159.214z M3520.51,2188.521c-12.671-8.885-25.568-18.035-38.444-27.162
		c-7.955-3.003-15.947-6.064-23.989-9.181c12.738,8.857,25.489,17.735,38.019,26.349
		C3504.309,2181.953,3512.393,2185.218,3520.51,2188.521z M3561.854,2217.307c-12.534-8.694-25.105-17.43-37.814-26.325
		c-8.046-3.264-16.105-6.541-24.243-9.926c12.538,8.603,24.93,17.031,37.302,25.435
		C3545.415,2210.18,3553.637,2213.743,3561.854,2217.307z M3602.264,2245.165c-12.096-8.295-24.23-16.634-36.498-25.13
		c-8.117-3.506-16.288-7.078-24.505-10.705c12.201,8.276,24.276,16.406,36.302,24.477
		C3585.884,2237.705,3594.043,2241.392,3602.264,2245.165z M3641.941,2272.258c-11.613-7.873-23.385-15.928-35.181-24.014
		c-8.059-3.681-16.067-7.302-24.226-11.103c11.375,7.633,22.734,15.238,33.931,22.66
		C3624.99,2263.991,3633.524,2268.197,3641.941,2272.258z M3680.493,2298.227c-11.038-7.395-22.193-14.916-33.389-22.492
		c-8.084-3.882-16.23-7.836-24.418-11.843c11.105,7.347,22.18,14.655,33.131,21.816
		C3664.117,2289.97,3672.297,2294.089,3680.493,2298.227z M3718.978,2323.802c-10.746-7.107-21.459-14.173-32.343-21.44
		c-7.954-3.995-15.971-8.065-24.026-12.184c10.584,6.894,20.989,13.583,31.443,20.327
		C3702.377,2314.958,3710.757,2319.476,3718.978,2323.802z M3754.722,2347.323c-9.459-6.178-19.001-12.452-28.593-18.787
		c-7.563-3.959-15.184-7.993-22.834-12.058c9.705,6.243,19.326,12.387,28.902,18.478
		C3739.767,2339.151,3747.238,2343.232,3754.722,2347.323z M3788.861,2369.502c-8.063-5.203-16.234-10.532-24.393-15.843
		c-6.488-3.531-12.934-7-19.489-10.609c7.884,5.014,15.805,10.062,23.564,14.926
		C3775.385,2361.898,3782.094,2365.664,3788.861,2369.502z M3819.8,2389.305c-5.892-3.753-11.726-7.448-17.643-11.238
		c-4.708-2.647-9.488-5.376-14.23-8.065c5.821,3.603,11.7,7.274,17.501,10.856C3810.241,2383.698,3815.021,2386.503,3819.8,2389.305
		z M3329.621,2039.451c-14.594-10.918-29.199-21.854-43.996-33.016c-7.104-1.447-14.232-2.936-21.378-4.453
		c14.605,10.855,29.064,21.535,43.469,32.153C3315.058,2035.964,3322.331,2037.701,3329.621,2039.451z M3374.694,2073.051
		c-14.28-10.602-28.674-21.326-43.16-32.162c-7.246-1.738-14.461-3.422-21.761-5.237c14.259,10.507,28.453,20.937,42.508,31.202
		C3359.802,2068.99,3367.236,2071.003,3374.694,2073.051z M3419.059,2105.873c-13.93-10.238-28.093-20.753-42.248-31.26
		c-7.413-2.026-14.763-3.973-22.235-6.091c13.922,10.168,27.826,20.32,41.527,30.227
		C3403.808,2101.191,3411.434,2103.531,3419.059,2105.873z M3463.128,2138.05c-13.846-10.081-27.697-20.159-41.74-30.473
		c-7.584-2.321-15.122-4.588-22.78-7.009c13.776,9.951,27.335,19.647,40.919,29.371
		C3447.431,2132.69,3455.307,2135.408,3463.128,2138.05z M3506.409,2169.399c-13.492-9.728-27.051-19.535-40.744-29.498
		c-7.746-2.609-15.501-5.232-23.33-7.947c13.455,9.621,26.793,19.115,40.052,28.508
		C3490.442,2163.502,3498.446,2166.474,3506.409,2169.399z M3548.986,2199.986c-13.088-9.344-26.368-18.904-39.664-28.489
		c-7.913-2.896-15.901-5.883-23.906-8.893c13.067,9.256,26.126,18.5,38.985,27.512
		C3532.635,2193.457,3540.848,2196.77,3548.986,2199.986z M3590.922,2229.743c-12.834-9.065-25.764-18.239-38.79-27.526
		c-8.025-3.158-16.084-6.362-24.201-9.643c12.826,8.977,25.56,17.841,38.202,26.604
		C3574.454,2222.769,3582.705,2226.28,3590.922,2229.743z M3632.436,2258.873c-12.621-8.818-25.251-17.648-38.052-26.674
		c-8.084-3.395-16.155-6.778-24.339-10.297c12.472,8.63,24.785,17.067,37.081,25.491
		C3615.598,2251.265,3624.073,2255.135,3632.436,2258.873z M3672.847,2286.972c-12.063-8.333-24.251-16.816-36.498-25.368
		c-8.188-3.642-16.443-7.363-24.735-11.136c12.034,8.238,24.005,16.4,35.86,24.422
		C3655.979,2278.975,3664.455,2283.026,3672.847,2286.972z M3712.286,2314.097c-11.434-7.81-23.034-15.809-34.647-23.826
		c-8.25-3.87-16.647-7.908-25.014-11.909c11.534,7.802,23.055,15.596,34.402,23.18
		C3695.51,2305.806,3703.911,2309.969,3712.286,2314.097z M3751.559,2340.712c-11.325-7.642-22.609-15.243-34.081-23.054
		c-8.004-3.93-15.963-7.804-24.064-11.858c11.121,7.41,22.114,14.664,33.106,21.917
		C3734.925,2332.119,3743.267,2336.444,3751.559,2340.712z M3789.723,2366.317c-10.505-7.005-21.064-14.067-31.718-21.246
		c-8.042-4.116-16.209-8.393-24.355-12.634c10.496,6.909,20.876,13.677,31.231,20.419
		C3773.181,2357.368,3781.527,2361.93,3789.723,2366.317z M3825.308,2389.963c-9.259-6.098-18.693-12.399-28.105-18.674
		c-7.496-3.993-15.03-8.029-22.614-12.125c9.4,6.112,18.78,12.203,28.035,18.144
		C3810.241,2381.591,3817.779,2385.787,3825.308,2389.963z M3860.381,2412.858c-8.305-5.404-16.647-10.848-25.01-16.317
		c-6.363-3.511-12.671-6.95-19.101-10.539c8.209,5.236,16.447,10.515,24.564,15.649
		C3847.426,2405.474,3853.86,2409.112,3860.381,2412.858z M3890.383,2432.285c-5.688-3.659-11.334-7.274-17.08-10.996
		c-4.725-2.696-9.496-5.439-14.263-8.175c6.342,3.974,12.642,7.896,18.943,11.822
		C3882.149,2427.42,3886.245,2429.83,3890.383,2432.285z M3353.714,2045.128c-14.888-11.296-29.745-22.553-44.848-34.101
		c-7.04-1.369-14.084-2.744-21.164-4.184c14.859,11.211,29.516,22.176,44.171,33.14
		C3339.176,2041.73,3346.468,2043.461,3353.714,2045.128z M3399.554,2079.76c-14.563-10.959-29.197-22.009-43.965-33.208
		c-7.232-1.66-14.52-3.397-21.803-5.135c14.555,10.885,29.003,21.646,43.358,32.294
		C3384.636,2075.761,3392.125,2077.801,3399.554,2079.76z M3444.619,2113.573c-14.188-10.585-28.589-21.414-43.002-32.264
		c-7.409-1.946-14.888-3.997-22.36-6.035c14.226,10.556,28.456,21.109,42.456,31.397
		C3429.38,2109.017,3437.022,2111.325,3444.619,2113.573z M3489.242,2146.669c-14.034-10.374-28.114-20.799-42.352-31.409
		c-7.567-2.231-15.201-4.552-22.839-6.882c14.096,10.35,28.022,20.496,41.919,30.611
		C3473.779,2141.617,3481.516,2144.148,3489.242,2146.669z M3533.461,2179.185c-13.838-10.136-27.718-20.319-41.76-30.69
		c-7.692-2.502-15.422-5.048-23.197-7.656c13.834,10.059,27.518,19.944,41.152,29.769
		C3517.635,2173.527,3525.569,2176.38,3533.461,2179.185z M3576.821,2210.817c-13.447-9.755-27.055-19.7-40.719-29.702
		c-7.817-2.766-15.634-5.532-23.539-8.414c13.388,9.646,26.739,19.241,39.919,28.644
		C3560.641,2204.557,3568.767,2207.732,3576.821,2210.817z M3619.665,2241.75c-13.159-9.452-26.455-19.066-39.823-28.752
		c-8-3.056-16.113-6.241-24.214-9.418c13.121,9.353,26.189,18.635,39.115,27.759
		C3603.073,2234.837,3611.439,2238.382,3619.665,2241.75z M3661.763,2271.781c-12.875-9.152-25.734-18.28-38.789-27.642
		c-8.163-3.33-16.509-6.889-24.776-10.347c12.963,9.135,25.73,18.042,38.51,26.962
		C3645.108,2264.492,3653.471,2268.177,3661.763,2271.781z M3702.948,2300.913c-12.396-8.719-24.893-17.553-37.477-26.492
		c-8.213-3.553-16.538-7.25-24.855-10.936c12.567,8.762,25.034,17.413,37.414,25.953
		C3686.422,2293.373,3694.665,2297.114,3702.948,2300.913z M3743.688,2329.47c-12.051-8.385-24.326-17.021-36.585-25.643
		c-8.125-3.709-16.201-7.354-24.435-11.194c11.796,8.141,23.605,16.296,35.206,24.206
		C3726.499,2321.075,3735.183,2325.375,3743.688,2329.47z M3783.477,2356.925c-11.672-8.027-23.351-16.065-35.168-24.261
		c-8.25-3.957-16.626-8.053-24.989-12.141c11.788,8.015,23.476,15.916,35.11,23.753
		C3766.868,2348.599,3775.152,2352.739,3783.477,2356.925z M3822.746,2383.773c-11.234-7.639-22.501-15.317-33.897-23.14
		c-8.063-4.034-16.068-8.007-24.235-12.172c11.096,7.458,22.043,14.742,32.989,22.021
		C3806.037,2374.97,3814.433,2379.415,3822.746,2383.773z M3860.648,2409.431c-10.276-6.901-20.714-13.989-31.16-21.084
		c-8.05-4.196-16.268-8.585-24.426-12.905c10.317,6.851,20.589,13.65,30.747,20.322
		C3844.109,2400.342,3852.46,2404.981,3860.648,2409.431z M3897.237,2433.828c-9.551-6.335-19.172-12.76-28.826-19.221
		c-7.446-4.024-14.947-8.113-22.485-12.244c9.305,6.096,18.626,12.206,27.806,18.149
		C3881.611,2425.003,3889.453,2429.453,3897.237,2433.828z M3931.943,2456.703c-8.442-5.537-16.826-11.003-25.355-16.642
		c-6.288-3.514-12.48-6.918-18.83-10.507c8.334,5.355,16.613,10.649,24.876,15.92
		C3919.13,2449.289,3925.513,2452.967,3931.943,2456.703z M3961.136,2475.807c-5.229-3.39-10.559-6.904-15.867-10.383
		c-5.034-2.902-10.067-5.805-15.146-8.755c7.046,4.462,13.909,8.714,20.884,13.096
		C3954.419,2471.825,3957.74,2473.771,3961.136,2475.807z M3377.582,2050.527c-15.067-11.577-30.145-23.165-45.434-35.003
		c-7.033-1.304-14.134-2.716-21.209-4.085c15.149,11.579,30.064,22.887,44.996,34.214
		C3363.177,2047.313,3370.394,2048.944,3377.582,2050.527z M3424.093,2086.11c-14.834-11.308-29.714-22.676-44.752-34.229
		c-7.155-1.567-14.322-3.158-21.53-4.805c14.83,11.247,29.522,22.328,44.148,33.333
		C3409.367,2082.357,3416.747,2084.252,3424.093,2086.11z M3469.941,2120.961c-14.509-10.969-29.202-22.156-43.936-33.389
		c-7.305-1.842-14.613-3.686-21.985-5.615c14.488,10.901,28.947,21.767,43.207,32.399
		C3454.828,2116.598,3462.411,2118.819,3469.941,2120.961z M3515.364,2155.141c-14.342-10.751-28.772-21.602-43.331-32.603
		c-7.475-2.12-14.984-4.276-22.53-6.492c14.288,10.645,28.443,21.139,42.519,31.541
		C3499.813,2150.12,3507.655,2152.717,3515.364,2155.141z M3560.112,2188.509c-14.093-10.47-28.201-20.963-42.498-31.673
		c-7.655-2.399-15.401-4.92-23.135-7.424c14.113,10.42,28.047,20.629,41.956,30.811
		C3544.361,2183.031,3552.274,2185.818,3560.112,2188.509z M3604.102,2221.067c-13.692-10.081-27.526-20.331-41.431-30.659
		c-7.8-2.666-15.709-5.471-23.597-8.252c13.809,10.103,27.543,20.124,41.139,29.98
		C3588.247,2215.204,3596.164,2218.126,3604.102,2221.067z M3647.491,2252.894c-13.421-9.791-27.014-19.778-40.652-29.818
		c-7.855-2.903-15.659-5.738-23.614-8.762c13.451,9.75,26.872,19.463,40.106,28.963
		C3631.482,2246.6,3639.449,2249.699,3647.491,2252.894z M3690.485,2284.047c-13.284-9.593-26.535-19.149-40.006-28.963
		c-7.996-3.163-15.951-6.28-24.043-9.568c13.28,9.518,26.331,18.773,39.423,28.068
		C3674.151,2277.175,3682.305,2280.594,3690.485,2284.047z M3732.8,2314.46c-12.905-9.228-25.897-18.555-38.998-28.012
		c-8.071-3.392-16.068-6.7-24.239-10.226c12.746,9.045,25.376,17.953,37.935,26.778
		C3715.974,2306.868,3724.441,2310.732,3732.8,2314.46z M3773.948,2343.788c-12.355-8.741-24.918-17.731-37.477-26.71
		c-8.217-3.652-16.497-7.385-24.822-11.17c12.426,8.731,24.843,17.447,37.064,25.941
		C3757.197,2335.911,3765.581,2339.866,3773.948,2343.788z M3815.008,2372.633c-12.167-8.515-24.364-17.073-36.698-25.779
		c-8.25-3.854-16.588-7.811-24.956-11.804c12.063,8.363,24.031,16.624,35.923,24.792
		C3797.899,2364.158,3806.508,2368.458,3815.008,2372.633z M3854.876,2400.367c-11.688-8.09-23.401-16.211-35.26-24.497
		c-8.271-4.043-16.593-8.147-24.976-12.329c11.88,8.142,23.589,16.085,35.302,24.032
		C3838.351,2391.955,3846.58,2396.123,3854.876,2400.367z M3893.904,2427.273c-11.03-7.55-22.218-15.277-33.431-23.035
		c-8.08-4.114-16.147-8.216-24.339-12.462c10.984,7.443,21.905,14.81,32.722,22.059
		C3877.257,2418.378,3885.615,2422.866,3893.904,2427.273z M3932.485,2453.509c-10.442-7.063-21.001-14.253-31.589-21.483
		c-8.009-4.237-16.184-8.666-24.305-13.03c10.2,6.828,20.405,13.662,30.447,20.304
		C3915.534,2444.052,3924.109,2448.895,3932.485,2453.509z M3969.32,2478.233c-9.809-6.555-19.563-13.041-29.489-19.729
		c-7.5-4.111-15.101-8.336-22.701-12.557c9.601,6.314,19.122,12.542,28.626,18.741
		C3953.631,2469.231,3961.54,2473.806,3969.32,2478.233z M4003.517,2500.989c-8.13-5.369-16.343-10.831-24.593-16.337
		c-6.629-3.748-13.217-7.455-19.922-11.291c8.334,5.411,16.509,10.642,24.751,15.941
		C3990.363,2493.223,3996.975,2497.148,4003.517,2500.989z M4034.635,2521.4c-5.78-3.772-11.625-7.625-17.438-11.438
		c-4.529-2.638-9-5.215-13.563-7.891c5.317,3.402,10.609,6.781,15.855,10.11C4024.543,2515.261,4029.623,2518.368,4034.635,2521.4z
		 M3401.079,2055.545c-15.28-11.879-30.614-23.821-46.127-35.971c-6.936-1.227-13.848-2.41-20.824-3.697
		c15.326,11.864,30.453,23.499,45.55,35.099C3386.845,2052.547,3393.966,2054.052,3401.079,2055.545z M3448.244,2092.061
		c-15.063-11.63-30.164-23.292-45.436-35.165c-7.1-1.489-14.218-3.001-21.368-4.566c15.088,11.594,30.014,22.988,44.902,34.335
		C3433.681,2088.516,3440.973,2090.299,3448.244,2092.061z M3494.7,2127.802c-14.726-11.277-29.622-22.752-44.573-34.29
		c-7.259-1.752-14.546-3.548-21.864-5.386c14.788,11.279,29.531,22.49,44.098,33.502
		C3479.858,2123.753,3487.279,2125.777,3494.7,2127.802z M3540.628,2162.827c-14.513-11.022-29.143-22.18-43.877-33.459
		c-7.4-2.014-14.822-4.052-22.297-6.161c14.596,11.03,29.093,21.94,43.469,32.711
		C3525.56,2158.312,3533.069,2160.538,3540.628,2162.827z M3586.247,2197.29c-14.405-10.848-28.81-21.699-43.423-32.789
		c-7.53-2.27-15.042-4.513-22.655-6.887c14.417,10.795,28.631,21.353,42.84,31.906
		C3570.817,2192.189,3578.53,2194.735,3586.247,2197.29z M3631.282,2231.078c-14.109-10.536-28.356-21.227-42.686-32.017
		c-7.663-2.526-15.284-5.002-23.034-7.642c13.98,10.379,27.868,20.656,41.635,30.789
		C3615.236,2225.179,3623.344,2228.233,3631.282,2231.078z M3675.247,2263.795c-13.655-10.106-27.501-20.433-41.377-30.79
		c-7.888-2.817-15.947-5.849-23.935-8.789c13.713,10.094,27.418,20.175,40.91,30.011
		C3659.013,2257.46,3667.184,2260.693,3675.247,2263.795z M3719.032,2295.989c-13.634-9.994-27.23-19.947-41.064-30.17
		c-7.979-3.059-16.03-6.207-24.114-9.392c13.58,9.885,26.939,19.514,40.323,29.178
		C3702.494,2289.104,3710.832,2292.63,3719.032,2295.989z M3761.914,2327.27c-13.201-9.582-26.48-19.261-39.881-29.079
		c-8.113-3.31-16.322-6.747-24.543-10.189c13.234,9.542,26.331,18.93,39.365,28.244
		C3745.254,2319.977,3753.626,2323.677,3761.914,2327.27z M3803.803,2357.593c-12.655-9.096-25.522-18.442-38.385-27.784
		c-8.217-3.548-16.568-7.262-24.897-10.95c12.817,9.155,25.609,18.282,38.214,27.197
		C3787.173,2349.995,3795.486,2353.797,3803.803,2357.593z M3845.772,2387.565c-12.634-8.989-25.31-18.028-38.123-27.225
		c-8.163-3.715-16.28-7.374-24.555-11.223c12.405,8.754,24.718,17.411,36.939,25.955
		C3828.659,2379.287,3837.276,2383.498,3845.772,2387.565z M3886.553,2416.407c-12.08-8.503-24.18-17.031-36.439-25.74
		c-8.388-4-16.963-8.217-25.476-12.36c12.209,8.518,24.239,16.833,36.277,25.154
		C3869.515,2407.844,3878.073,2412.173,3886.553,2416.407z M3926.28,2444.268c-11.534-8.032-23.218-16.24-34.939-24.489
		c-8.234-4.097-16.488-8.218-24.839-12.453c11.713,8.085,23.343,16.077,34.873,23.954
		C3909.775,2435.723,3917.996,2439.96,3926.28,2444.268z M3965.565,2471.466c-11.072-7.625-22.264-15.383-33.493-23.191
		c-8.054-4.167-16.093-8.312-24.255-12.612c10.875,7.424,21.755,14.856,32.448,22.071
		C3948.769,2462.395,3957.182,2466.946,3965.565,2471.466z M4004.255,2497.913c-10.646-7.245-21.243-14.43-32.022-21.829
		c-7.971-4.276-16.063-8.695-24.143-13.101c10.496,7.054,20.913,14.004,31.293,20.919
		C3987.704,2488.612,3996.042,2493.337,4004.255,2497.913z M4041.161,2522.905c-9.521-6.402-19.118-12.896-28.781-19.46
		c-7.725-4.281-15.609-8.75-23.434-13.15c9.667,6.415,19.197,12.671,28.743,18.943
		C4025.518,2513.802,4033.427,2518.455,4041.161,2522.905z M4075.796,2546.081c-8.105-5.389-16.338-10.918-24.551-16.431
		c-6.613-3.779-13.284-7.629-19.972-11.494c7.763,5.089,15.501,10.148,23.151,15.106
		C4061.545,2537.531,4068.758,2541.904,4075.796,2546.081z M4106.793,2566.523c-5.971-3.925-11.896-7.797-17.892-11.751
		c-3.904-2.299-7.713-4.484-11.642-6.812c4.534,2.911,9.125,5.892,13.63,8.772
		C4096.185,2559.989,4101.543,2563.32,4106.793,2566.523z M4995.329,1716.08c-4.296,1.887-8.755,3.859-13.393,5.912
		c-22.93,170.401-57.919,396.047-179.138,556.955c-154.195,204.682-447.831,304.573-1033.513,52.556
		c13.005,9.433,25.985,18.839,38.777,28.032c578.449,263.195,869.677,183.245,1019.596-11.962
		C4960.502,2174.6,4982.524,1911.186,4995.329,1716.08z M4982.086,1720.882c4.609-2.039,9.042-3.999,13.309-5.872
		c0.388-5.936,0.771-11.807,1.146-17.609c-3.929,2.122-7.996,4.353-12.205,6.681
		C4983.599,1709.616,4982.849,1715.217,4982.086,1720.882z M2848.241,1879.441c-3.894-1.182-7.786-2.35-11.69-3.548
		c7.317,2.716,14.565,5.29,21.83,7.901C2855.025,1882.388,2851.604,1880.866,2848.241,1879.441z M2875.197,1887.627
		c-6.215-1.822-12.492-3.813-18.724-5.686c7.463,3.138,14.836,6.115,22.26,9.188c6.173,2.195,12.403,4.508,18.545,6.645
		C2889.952,1894.451,2882.585,1891.056,2875.197,1887.627z M2900.415,1894.797c-6.536-1.86-13.044-3.661-19.601-5.573
		c8.709,4.024,17.299,7.86,25.928,11.765c6.604,2.272,13.176,4.487,19.751,6.708
		C2917.843,1903.46,2909.157,1899.17,2900.415,1894.797z M2926.491,1902.209c-7.073-1.948-14.209-4.048-21.312-6.057
		c9.59,4.784,19.036,9.354,28.529,13.996c7.281,2.444,14.611,4.985,21.855,7.354
		C2945.917,1912.467,2936.25,1907.405,2926.491,1902.209z M2951.363,1908.866c-6.909-1.844-13.778-3.591-20.711-5.491
		c10.19,5.413,20.216,10.594,30.289,15.843c7.208,2.347,14.365,4.595,21.539,6.877
		C2972.118,1920.363,2961.832,1914.741,2951.363,1908.866z M2977.01,1915.666c-7.323-1.89-14.697-3.895-22.049-5.846
		c10.844,6.078,21.474,11.852,32.199,17.769c7.478,2.364,15.015,4.844,22.453,7.131
		C2998.828,1928.477,2987.915,1922.066,2977.01,1915.666z M3001.555,1921.834c-7.051-1.754-14.078-3.456-21.155-5.271
		c11.115,6.517,22.197,12.988,33.193,19.347c7.442,2.279,14.811,4.426,22.216,6.635
		C3024.452,1935.722,3013.07,1928.866,3001.555,1921.834z M3026.498,1927.975c-7.265-1.747-14.567-3.572-21.862-5.381
		c11.68,7.124,23.261,14.12,34.775,21.028c7.58,2.253,15.226,4.627,22.761,6.799
		C3050.376,1943.061,3038.436,1935.516,3026.498,1927.975z M3050.824,1933.713c-7.134-1.655-14.267-3.313-21.43-5.026
		c12.086,7.629,24.145,15.223,36.089,22.673c7.461,2.142,14.832,4.123,22.249,6.193
		C3075.484,1949.677,3063.231,1941.793,3050.824,1933.713z M3075.034,1939.218c-7.177-1.604-14.372-3.242-21.576-4.908
		c12.561,8.177,24.959,16.143,37.35,24.102c7.519,2.089,15.094,4.269,22.574,6.285
		C3100.693,1956.319,3087.918,1947.838,3075.034,1939.218z M3099.25,1944.564c-7.192-1.549-14.409-3.153-21.632-4.76
		c12.988,8.683,25.891,17.263,38.683,25.704c7.338,1.972,14.584,3.77,21.882,5.667
		C3125.334,1962.465,3112.269,1953.486,3099.25,1944.564z M3122.978,1949.517c-7.103-1.467-14.203-2.928-21.336-4.454
		c13.14,9.001,26.301,18.028,39.271,26.819c7.486,1.939,14.999,3.928,22.441,5.79
		C3149.977,1968.387,3136.516,1959,3122.978,1949.517z M3146.735,1954.415c-7.115-1.411-14.286-2.943-21.43-4.412
		c13.649,9.556,27.195,18.988,40.683,28.351c7.34,1.829,14.613,3.547,21.914,5.309
		C3174.253,1974.001,3160.565,1964.295,3146.735,1954.415z M3169.936,1958.834c-7.002-1.331-13.982-2.611-21.016-4.003
		c13.922,9.943,27.695,19.703,41.425,29.413c7.338,1.765,14.682,3.536,21.978,5.23
		C3198.284,1979.366,3184.202,1969.21,3169.936,1958.834z M3193.304,1963.286c-7.04-1.28-14.153-2.703-21.224-4.043
		c14.344,10.432,28.504,20.638,42.621,30.794c7.257,1.677,14.478,3.296,21.695,4.905
		C3222.126,1984.503,3207.82,1974.018,3193.304,1963.286z M3216.237,1967.277c-6.94-1.208-13.832-2.324-20.801-3.586
		c14.542,10.749,28.897,21.278,43.196,31.736c7.215,1.602,14.407,3.168,21.576,4.697
		C3245.669,1989.314,3231.012,1978.369,3216.237,1967.277z M3239.225,1971.238c-6.963-1.154-13.974-2.401-20.961-3.61
		c14.824,11.121,29.55,22.13,44.138,32.975c7.175,1.525,14.353,3.059,21.487,4.513
		C3269.137,1993.985,3254.201,1982.638,3239.225,1971.238z M3261.86,1974.873c-6.875-1.087-13.738-2.15-20.641-3.289
		c14.997,11.41,29.97,22.796,44.744,33.946c7.096,1.442,14.145,2.809,21.197,4.184
		C3292.213,1998.282,3277.025,1986.563,3261.86,1974.873z M3284.384,1978.352c-6.85-1.031-13.728-2.098-20.612-3.185
		c15.205,11.72,30.454,23.488,45.442,34.953c7.098,1.382,14.238,2.826,21.295,4.143
		C3315.289,2002.468,3299.822,1990.393,3284.384,1978.352z M3306.756,1981.65c-6.809-0.97-13.642-1.984-20.48-3.005
		c15.469,12.065,30.954,24.148,46.213,35.969c6.99,1.295,13.905,2.468,20.851,3.7
		C3337.951,2006.255,3322.352,1993.953,3306.756,1981.65z M4842.109,1782.371c-289.114,119.061-832.662,298.928-1533.537,199.526
		c15.649,12.341,31.281,24.665,46.721,36.764C4073.667,2145.394,4572.274,1927.518,4842.109,1782.371z M4861.243,1774.424
		c-3.546,1.483-7.101,2.969-10.726,4.477c-267.792,145.041-768.73,368.434-1493.612,241.019
		c15.551,12.182,30.931,24.165,46.244,36.068C4155.625,2213.523,4615.619,1945.798,4861.243,1774.424z M4877.423,1767.61
		c-3.975,1.684-7.95,3.371-12.038,5.087c-244.628,171.204-705.114,442.194-1460.506,284.641
		c15.33,11.911,30.468,23.604,45.586,35.269C4236.087,2282.077,4655.554,1965.347,4877.423,1767.61z M4892.82,1761.052
		c-4.154,1.782-8.375,3.579-12.667,5.401c-221.252,197.56-640.594,516.75-1427.808,327.607
		c15.009,11.582,29.952,23.083,44.736,34.403C4316.674,2351.313,4694.714,1985.351,4892.82,1761.052z M4907.82,1754.596
		c-4.225,1.831-8.575,3.702-12.967,5.582c-197.689,224.12-575.32,592.086-1395.723,369.845
		c14.772,11.308,29.464,22.521,44.006,33.565C4397.833,2421.281,4733.625,2005.629,4907.82,1754.596z M4922.671,1748.144
		c-4.284,1.873-8.722,3.795-13.188,5.731c-173.917,250.87-509.204,668.209-1364.147,411.389
		c14.676,11.136,29.126,22.013,43.59,32.905c737.737,243.306,1065.382-34.357,1241.416-294.892
		C4866.868,1849.214,4896.874,1795.905,4922.671,1748.144z M4937.364,1741.703c-4.338,1.906-8.75,3.845-13.28,5.825
		c-25.943,48.061-56.14,101.796-92.95,156.281c-176.004,260.489-503.383,538.114-1239.857,296.128
		c14.422,10.856,28.743,21.59,42.944,32.192c669.096,238.89,985.261,37.041,1156.803-208.494
		C4857.459,1928.535,4902.212,1826.87,4937.364,1741.703z M4951.952,1735.268c-4.35,1.924-8.767,3.875-13.334,5.885
		c-35.227,85.397-80.087,187.505-146.82,283.024c-171.492,245.467-487.353,447.326-1155.07,209.817
		c13.938,10.405,27.885,20.82,41.598,30.962c629.119,241.104,935.771,85.106,1101.155-144.922
		C4868.348,1996.429,4916.467,1851.448,4951.952,1735.268z M4966.465,1728.844c-4.337,1.922-8.771,3.889-13.363,5.917
		c-35.523,116.373-83.688,261.813-172.851,385.828c-165.316,229.934-471.578,386.008-1099.154,146.411
		c13.905,10.275,27.597,20.303,41.306,30.344c603.68,246.409,903.024,122.42,1062.511-93.95
		C4891.482,2058.81,4935.655,1872.968,4966.465,1728.844z M4969.978,1727.288l-2.438,1.079
		c-30.835,144.305-75.008,330.622-181.855,475.588c-159.404,216.259-458.285,340.378-1060.29,95.589
		c13.593,9.948,27.039,19.734,40.423,29.447c587.646,253.862,881.911,154.217,1036.222-50.618
		c120.939-160.536,155.958-385.705,178.88-555.934C4977.37,1724.012,4973.724,1725.628,4969.978,1727.288z M4967.786,1727.217
		l1.804-0.798c3.938-1.747,7.763-3.441,11.479-5.086c0.754-5.621,1.5-11.182,2.233-16.681c-3.934,2.179-7.988,4.441-12.163,6.783
		C4970.04,1716.638,4968.923,1721.896,4967.786,1727.217z M4953.473,1733.557c4.55-2.01,8.938-3.956,13.242-5.863
		c1.125-5.273,2.233-10.486,3.325-15.639c-3.929,2.207-7.967,4.483-12.109,6.826
		C4956.464,1723.719,4954.981,1728.609,4953.473,1733.557z M4939.143,1739.883c4.513-1.986,8.875-3.913,13.176-5.815
		c1.492-4.89,2.963-9.725,4.413-14.506c-3.921,2.216-7.938,4.494-12.046,6.822
		C4942.864,1730.833,4941.018,1735.337,4939.143,1739.883z M4924.817,1746.165c4.446-1.943,8.817-3.86,13.067-5.733
		c1.85-4.478,3.667-8.91,5.467-13.292l-2.2,1.248l-9.747,5.522C4929.242,1737.952,4927.042,1742.037,4924.817,1746.165z
		 M4910.517,1752.389c4.362-1.892,8.7-3.775,12.888-5.604c2.18-4.04,4.33-8.041,6.451-11.997c-3.846,2.18-7.792,4.412-11.792,6.667
		C4915.579,1745.062,4913.071,1748.699,4910.517,1752.389z M4896.316,1758.514c4.246-1.823,8.446-3.63,12.538-5.404
		c2.475-3.567,4.913-7.092,7.325-10.592c-3.754,2.122-7.583,4.276-11.476,6.456
		C4901.958,1752.115,4899.132,1755.319,4896.316,1758.514z M4882.361,1764.483c4.046-1.72,8-3.412,11.921-5.096
		c2.671-3.027,5.313-6.03,7.925-9.011c-3.608,2.026-7.242,4.061-10.967,6.14C4888.319,1759.146,4885.365,1761.798,4882.361,1764.483
		z M4869.102,1770.102c3.563-1.502,7.042-2.981,10.534-4.462c2.654-2.371,5.304-4.738,7.904-7.071
		c-3.262,1.818-6.508,3.627-9.867,5.481C4874.819,1766.069,4872.015,1768.058,4869.102,1770.102z M4858.843,1774.393
		c2.025-0.844,4.092-1.701,6.088-2.539c1.775-1.241,3.559-2.485,5.3-3.712C4866.468,1770.212,4862.718,1772.28,4858.843,1774.393z
		 M0,1716.752c355.78-141.048,1374.854-455.39,2480.298,25.972c111.36,48.489,220.353,89.13,326.758,122.955
		c-105.505-40.251-214.502-87.63-327.156-143.376C1273.319,1125.222,335.117,1496.88,0,1675.138v-1.072
		c335.66-178.435,1273.905-549.613,2480.321,47.386c118.417,58.598,232.824,108.007,343.336,149.532
		c5.579,1.74,11.113,3.358,16.678,5.062c-114.958-48.954-234.98-106.8-360.451-175.036C1178.083,993.045,314.897,1411.57,0,1628.047
		v-1.152c315.555-216.715,1178.892-634.492,2480.338,73.28c128.296,69.772,250.925,128.736,368.229,178.372
		c6.9,2.091,13.826,4.251,20.701,6.286c-123.046-57.321-252.65-125.128-389.396-205.114
		C1090.225,866.896,295.056,1320.063,0,1575.205v-1.256c295.775-255.418,1091.229-707.567,2480.35,104.951
		c138.882,81.234,270.428,149.963,395.176,207.831c6.85,2.014,13.636,3.863,20.468,5.818
		c-130.484-65.462-268.934-142.875-416.133-234.12C1011.742,748.403,276.13,1221.399,0,1514.83v-1.396
		c276.899-293.712,1012.959-765.391,2480.356,144.189c148.801,92.234,288.687,170.381,420.402,236.281
		c7.29,2.076,14.603,4.203,21.868,6.217c-137.911-73.576-285.173-160.545-442.774-262.978
		C944.561,639.283,258.657,1114.955,0,1444.867v-1.522c259.425-330.156,945.895-804.331,2480.367,193
		c159.012,103.349,307.524,190.999,446.483,264.978c7.117,1.96,14.184,3.8,21.274,5.699
		c-145.003-81.525-300.755-177.898-468.28-291.166C891.561,541.971,243.741,1000.266,0,1362.633v-1.737
		c244.554-362.51,893.123-819.017,2480.377,254.171c168.702,114.067,325.485,211.03,471.344,292.908
		c7.423,1.98,14.855,3.983,22.249,5.897c-152.258-89.505-316.512-195.129-494.133-319.304C855.09,458.68,232.553,878.054,0,1265.697
		v-1.897c233.368-387.638,856.745-805.12,2480.381,329.99c178.734,124.956,343.932,231.129,496.977,320.983
		c7.175,1.846,14.315,3.623,21.466,5.409c-159.191-97.31-331.764-212.197-518.992-346.9C837.01,391.337,226.495,750.458,0,1152.397
		v-2.051c227.328-401.746,838.746-758.93,2480.385,422.164c188.239,135.432,361.633,250.796,521.518,348.432
		c7.363,1.834,14.721,3.656,22.055,5.428c-166.285-105.157-347.105-229.046-544.129-374.37
		C837.279,340.465,226.636,621.475,0,1023.339v-2.441c227.528-401.353,839.217-680.183,2480.392,530.334
		c197.958,146.014,379.548,270.382,546.462,375.848c7.242,1.742,14.476,3.458,21.688,5.137
		c-173.192-112.883-362.199-245.82-568.718-401.506C852.976,304.303,233.068,496.338,0,882.463v-2.372
		c234.003-385.463,854.972-575.477,2480.396,649.86c207.346,156.308,397.041,289.702,570.78,402.863
		c7.225,1.675,14.428,3.304,21.624,4.915c-180.03-120.536-377.106-262.404-592.979-428.304
		C880.181,280.066,245.191,379.599,0,735.581v-2.086c245.975-355.359,881.727-453.438,2480.398,775.177
		c216.696,166.535,414.421,308.824,594.988,429.649c7.275,1.624,14.567,3.276,21.814,4.84
		c-186.957-128.207-392.059-278.861-617.383-455.022C914.166,264.082,261.573,274.065,0,588.967v-2.006
		c262.315-314.232,915.587-322.972,2480.4,900.43c226.065,176.741,431.761,327.798,619.191,456.27
		c7.161,1.537,14.28,2.994,21.411,4.472c-193.716-135.761-406.697-295.108-641.19-481.279
		C951.064,253.138,280.626,180.453,0,447.451v-1.938c281.326-266.305,952.378-192.548,2480.406,1020.598
		c235.206,186.734,448.762,346.485,642.922,482.505c7.184,1.485,14.411,3.054,21.563,4.477
		c-200.495-143.294-421.415-311.374-665.081-507.525C988.289,244.891,301.019,98.054,0,313.927v-1.822
		c301.661-215.212,989.451-67.497,2480.408,1132.724c244.32,196.68,465.769,365.143,666.67,508.681
		c7.052,1.399,14.042,2.675,21.066,4.012c-207.112-150.706-435.78-327.362-688.334-533.235
		C1024.034,237.586,321.687,25.59,0,189.931v-1.81c322.32-163.657,1025.18,49.171,2480.41,1235.427
		c253.192,206.394,482.376,383.435,689.876,534.382c7.082,1.345,14.198,2.762,21.255,4.049
		c-213.771-158.118-450.245-343.375-711.733-558.978C1057.657,230.391,342.036-38.551,0,75.472v-1.696
		C342.64-39.609,1058.742,230.055,2480.41,1402.268c262.119,216.124,499.094,401.753,713.246,560.113
		c6.998,1.275,13.928,2.42,20.897,3.637c-220.369-165.468-464.444-359.089-734.747-584.3C1436.496,512.444,766.796,116.16,344.4,0
		h4.559c422.963,118.006,1091.839,514.791,2131.454,1380.985c270.907,225.717,515.44,419.68,736.168,585.384
		c7.004,1.216,14.02,2.456,20.993,3.615c-226.978-172.797-478.657-374.76-757.771-609.553
		C1580.166,603.646,952.987,188.675,521.151,0h2.883c432.001,189.464,1058.655,604.529,1956.38,1359.705
		c279.701,235.287,531.826,437.592,759.154,610.625c6.927,1.149,13.822,2.238,20.72,3.334
		c-233.514-180.058-492.704-390.283-780.487-634.516C1661.343,644.548,1064.503,225.656,633.071,0h2.413
		c431.476,226.134,1027.895,645.027,1844.931,1338.423c288.337,244.703,547.952,455.253,781.791,635.537
		c6.892,1.089,13.771,2.151,20.634,3.187c-240.01-187.274-506.671-405.702-803.04-659.283
		C1720.714,668.372,1148.474,249.603,720.5,0h1.85c428.023,249.881,999.754,668.314,1758.066,1317.143
		c296.915,254.043,563.99,472.802,804.313,660.297c6.857,1.031,13.719,2.069,20.549,3.044
		c-246.483-194.45-520.578-421.042-825.481-683.905C1767.046,682.105,1216.183,266.149,792.91,0h1.802
		c423.279,266.36,973.68,682.01,1685.708,1295.86c305.415,263.304,579.9,490.213,826.674,684.873
		c708.219,100.84,1255.962-83.644,1543.022-202.699c9.267-5.021,18.326-9.97,27.051-14.79c8.425-5.951,16.622-11.785,24.514-17.44
		c7.521-6.814,14.771-13.432,21.797-19.845l4.992-5.752c4.862-5.604,9.596-11.068,14.213-16.37
		c5.742-8.377,11.288-16.44,16.664-24.143c4.888-9.019,9.625-17.65,14.238-25.837c4.066-9.539,8.042-18.603,11.955-27.138
		c3.317-9.938,6.6-19.315,9.892-28.068c1.508-5.815,3.025-11.419,4.567-16.798v3.448c-0.483,1.723-0.962,3.468-1.442,5.234
		c0.479-1.216,0.958-2.419,1.442-3.61v7.54l-0.684,4.082l0.684-1.281v1.997l-1.171,2.229c-0.742,4.578-1.483,9.263-2.217,14.042
		c1.138-1.728,2.263-3.415,3.388-5.065v1.677c-1.233,1.829-2.479,3.707-3.725,5.628c-0.738,4.854-1.471,9.803-2.196,14.848
		c1.992-2.477,3.967-4.871,5.921-7.174v1.464c-2.038,2.424-4.1,4.943-6.188,7.554c-0.729,5.053-1.454,10.205-2.179,15.444
		c2.842-2.89,5.629-5.656,8.367-8.29v1.316c-2.809,2.715-5.667,5.565-8.584,8.544c-0.725,5.219-1.446,10.528-2.175,15.915
		c3.342-2.783,6.596-5.44,9.771-7.968c0.33-4.896,0.654-9.73,0.988-14.498v14.928l-0.063,0.051
		c-0.379,5.645-0.75,11.373-1.129,17.176l1.192-0.777v1.133l-1.267,0.83l-0.846,13.029l-0.287,4.448l2.4-1.29v1.079l-2.471,1.327
		c-0.379,5.842-0.758,11.743-1.15,17.715l3.621-1.587v1.038l-3.692,1.619c-12.805,195.274-34.769,459.159-167.896,632.5
		c-149.774,195.02-440.292,275.241-1016.513,14.126c12.98,9.314,25.872,18.522,38.656,27.611
		c573.675,273.491,862.972,209.77,1009.125,22.702c90.471-115.797,126.085-278.9,140.319-438.6v10.359
		c-14.855,156.54-50.902,315.333-139.574,428.826c-145.99,186.865-434.559,250.859-1005.841-20.409
		c12.517,8.883,24.847,17.551,37.185,26.229c572.878,285.079,861.88,235.741,1004.887,55.496
		c50.794-64.029,83.171-144.583,103.343-232.511v4.252c-20.264,86.481-52.482,165.68-102.601,228.85
		c-142.799,179.986-430.838,229.723-1000.849-52.724c12.084,8.491,24.089,16.891,35.985,25.161
		c575.016,297.598,864.655,260.955,1005.004,86.483c25.468-31.654,45.998-67.865,62.461-107.417v2.497
		c-16.342,38.807-36.652,74.355-61.72,105.515c-140.078,174.13-428.463,211.33-999.975-83.081
		c11.53,8.017,23.068,16.034,34.397,23.826c579.616,311.006,870.743,285.866,1008.871,116.303
		c6.488-7.964,12.596-16.283,18.426-24.864v1.691c-5.608,8.193-11.476,16.145-17.692,23.773
		c-137.778,169.14-427.375,194.955-1002.779-112.235c11.184,7.656,22.251,15.183,33.302,22.681
		c548.306,304.05,840.321,310.871,987.17,174.98v1.273c-146.591,134.819-436.826,128.319-979.694-171.156
		c10.567,7.153,20.997,14.146,31.414,21.13c499.925,285.891,788.947,328.219,948.28,238.181v1.05
		c-158.604,89.155-445.018,47.792-938.505-232.688c9.367,6.27,18.705,12.508,27.922,18.609
		c458.906,270.113,742.308,338.306,910.583,286.116v0.941c-166.808,51.473-446.268-14.902-896.703-277.939
		c7.913,5.208,15.855,10.454,23.676,15.56c422.871,255.592,698.785,342.692,873.027,321.715v0.847
		c-171.513,20.532-441.172-63.311-851.976-308.896c5.65,3.649,11.275,7.269,16.893,10.884
		c267.567,165.684,477.107,265.056,639.686,312.702h-2.917c-153.658-45.431-348.951-136.753-595.117-286.142
		C4418.746,2764,4594.859,2857.047,4740.266,2916h-2.167c-154.558-62.848-343.663-164.092-573.645-311.982
		c-24.197-14.978-48.853-30.483-73.966-46.514c-23.56-14.483-47.461-29.358-71.908-44.862
		c-22.243-13.558-44.906-27.596-67.949-42.074c-23.855-14.378-48.248-29.376-73.016-44.82c-23.743-14.173-47.965-28.9-72.57-44.078
		c-23.601-13.94-47.615-28.363-72.024-43.257c-23.439-13.679-47.198-27.746-71.437-42.372
		c-23.201-13.364-46.677-27.054-70.649-41.343c-22.839-12.96-45.915-26.204-69.483-40.053
		c-22.43-12.508-45.106-25.314-68.232-38.679c-21.847-11.944-43.957-24.215-66.453-36.968
		c-22.247-11.891-44.873-24.254-67.785-36.975c-21.966-11.443-44.315-23.376-66.883-35.591
		c-21.628-10.954-43.49-22.209-65.676-33.902c-21.553-10.536-43.427-21.506-65.541-32.804
		c-20.503-9.643-41.212-19.569-62.191-29.875c-20.097-8.993-40.46-18.372-60.957-27.954c-20.295-8.556-40.773-17.396-61.47-26.585
		c-19.126-7.492-38.444-15.306-57.853-23.288c-18.265-6.529-36.604-13.205-55.075-20.146
		c-111.67-34.838-226.249-77.263-343.417-128.285C1374.416,1262.208,355.328,1576.844,0,1717.776V1716.752z"/>
</g>
</svg>
